<?xml version="1.0" encoding="iso-8859-1"?>
<!-- Generator: Adobe Illustrator 19.0.0, SVG Export Plug-In . SVG Version: 6.00 Build 0)  -->
<svg xmlns="http://www.w3.org/2000/svg" xmlns:xlink="http://www.w3.org/1999/xlink" version="1.1" id="Capa_1" x="0px" y="0px" viewBox="0 0 507.996 507.996" style="enable-background:new 0 0 507.996 507.996;" xml:space="preserve" width="512px" height="512px">
<g>
	<g>
		<path d="M502.485,144.697c-23.7-40-92.3-12.4-157.7,21.4l-186.4-66c-5.1-1.8-10.8-0.5-14.7,3.3l-31.3,31.3    c-5.7,5.8-5.8,15.5,1.6,21.3l107.9,80.4c-38.3,25.2-75.9,53.6-101,76.4l-76.7-29.4c-5.5-2.1-11.8-0.6-15.7,4l-25.1,28.9    c-5,5.8-4.4,14.7,1.4,19.8l74.7,65.8c6.7,4.6,16.2,6.8,28.1,6.8c49.5,0,138.1-37.2,214.1-82.2    C453.485,248.397,529.785,190.797,502.485,144.697z M443.185,211.397c-28,23.7-69.8,51.7-135.8,90.7    c-120.6,71.4-198.9,83.8-211.3,76.9l-62.2-54.9l9.3-10.8l75.7,29c5.1,1.9,10.8,0.8,14.8-3c26.6-25.3,75-61.6,120.4-90.1    c8.1-5.2,9-17,0.9-23.3l-111.1-82.8l13.4-13.5l183.8,65.1c3.7,1.3,7.8,1,11.3-0.8c100.9-52.8,121.6-42,125.8-34.9    C483.885,168.697,471.085,187.697,443.185,211.397z" fill="#dddddd"/>
	</g>
</g>
<g>
</g>
<g>
</g>
<g>
</g>
<g>
</g>
<g>
</g>
<g>
</g>
<g>
</g>
<g>
</g>
<g>
</g>
<g>
</g>
<g>
</g>
<g>
</g>
<g>
</g>
<g>
</g>
<g>
</g>
</svg>
